<svg width="321" height="260" viewBox="0 0 321 260" fill="none" xmlns="http://www.w3.org/2000/svg">
<path d="M115.573 162.3C113.456 162.3 111.831 161.783 110.698 160.75C109.581 159.7 109.023 158.158 109.023 156.125V151.525C109.023 149.475 109.589 147.933 110.723 146.9C111.856 145.85 113.473 145.325 115.573 145.325C117.006 145.325 118.239 145.558 119.273 146.025C120.306 146.492 121.073 147.158 121.573 148.025C122.073 148.892 122.239 149.917 122.073 151.1C122.056 151.183 122.023 151.267 121.973 151.35C121.939 151.417 121.873 151.45 121.773 151.45H119.348C119.148 151.45 119.056 151.35 119.073 151.15C119.106 150.133 118.831 149.35 118.248 148.8C117.681 148.233 116.806 147.95 115.623 147.95C114.473 147.95 113.581 148.25 112.948 148.85C112.331 149.45 112.023 150.358 112.023 151.575V156.05C112.023 157.267 112.331 158.175 112.948 158.775C113.581 159.375 114.473 159.675 115.623 159.675C116.839 159.675 117.739 159.392 118.323 158.825C118.906 158.242 119.156 157.458 119.073 156.475C119.056 156.275 119.148 156.175 119.348 156.175H121.748C121.931 156.175 122.039 156.292 122.073 156.525C122.189 157.692 121.989 158.708 121.473 159.575C120.973 160.442 120.214 161.117 119.198 161.6C118.198 162.067 116.989 162.3 115.573 162.3ZM131.516 162.3C129.316 162.3 127.666 161.775 126.566 160.725C125.466 159.658 124.916 158.133 124.916 156.15V151.475C124.916 149.475 125.466 147.95 126.566 146.9C127.666 145.85 129.316 145.325 131.516 145.325C133.7 145.325 135.341 145.85 136.441 146.9C137.541 147.95 138.091 149.475 138.091 151.475V156.15C138.091 158.133 137.541 159.658 136.441 160.725C135.341 161.775 133.7 162.3 131.516 162.3ZM131.516 159.675C132.7 159.675 133.591 159.367 134.191 158.75C134.791 158.117 135.091 157.2 135.091 156V151.625C135.091 150.425 134.791 149.517 134.191 148.9C133.591 148.267 132.7 147.95 131.516 147.95C130.333 147.95 129.433 148.267 128.816 148.9C128.216 149.517 127.916 150.425 127.916 151.625V156C127.916 157.2 128.216 158.117 128.816 158.75C129.433 159.367 130.333 159.675 131.516 159.675ZM141.775 162C141.592 162 141.5 161.9 141.5 161.7V145.925C141.5 145.725 141.592 145.625 141.775 145.625H145.325C145.492 145.625 145.609 145.692 145.675 145.825L149.7 153.95C149.984 154.5 150.242 155.033 150.475 155.55C150.725 156.067 150.95 156.558 151.15 157.025C151.35 157.492 151.525 157.925 151.675 158.325H151.75C151.717 157.875 151.692 157.392 151.675 156.875C151.659 156.342 151.642 155.808 151.625 155.275C151.625 154.742 151.625 154.258 151.625 153.825V145.925C151.625 145.725 151.717 145.625 151.9 145.625H154.25C154.45 145.625 154.55 145.725 154.55 145.925V161.7C154.55 161.9 154.45 162 154.25 162H150.75C150.584 162 150.467 161.933 150.4 161.8L146.5 153.95C146.25 153.45 146 152.942 145.75 152.425C145.517 151.892 145.284 151.367 145.05 150.85C144.834 150.333 144.625 149.842 144.425 149.375H144.35C144.367 149.892 144.384 150.417 144.4 150.95C144.417 151.483 144.425 152.017 144.425 152.55C144.425 153.083 144.425 153.617 144.425 154.15V161.7C144.425 161.9 144.325 162 144.125 162H141.775ZM164.474 162.3C162.357 162.3 160.732 161.783 159.599 160.75C158.482 159.7 157.924 158.158 157.924 156.125V151.525C157.924 149.475 158.491 147.933 159.624 146.9C160.757 145.85 162.374 145.325 164.474 145.325C165.907 145.325 167.141 145.558 168.174 146.025C169.207 146.492 169.974 147.158 170.474 148.025C170.974 148.892 171.141 149.917 170.974 151.1C170.957 151.183 170.924 151.267 170.874 151.35C170.841 151.417 170.774 151.45 170.674 151.45H168.249C168.049 151.45 167.957 151.35 167.974 151.15C168.007 150.133 167.732 149.35 167.149 148.8C166.582 148.233 165.707 147.95 164.524 147.95C163.374 147.95 162.482 148.25 161.849 148.85C161.232 149.45 160.924 150.358 160.924 151.575V156.05C160.924 157.267 161.232 158.175 161.849 158.775C162.482 159.375 163.374 159.675 164.524 159.675C165.741 159.675 166.641 159.392 167.224 158.825C167.807 158.242 168.057 157.458 167.974 156.475C167.957 156.275 168.049 156.175 168.249 156.175H170.649C170.832 156.175 170.941 156.292 170.974 156.525C171.091 157.692 170.891 158.708 170.374 159.575C169.874 160.442 169.116 161.117 168.099 161.6C167.099 162.067 165.891 162.3 164.474 162.3ZM174.563 162C174.38 162 174.288 161.9 174.288 161.7V145.925C174.288 145.725 174.38 145.625 174.563 145.625H184.138C184.322 145.625 184.413 145.725 184.413 145.925V147.975C184.413 148.175 184.322 148.275 184.138 148.275H177.288V152.45H183.538C183.722 152.45 183.813 152.55 183.813 152.75V154.675C183.813 154.875 183.722 154.975 183.538 154.975H177.288V159.35H184.138C184.322 159.35 184.413 159.45 184.413 159.65V161.7C184.413 161.9 184.322 162 184.138 162H174.563ZM188.064 162C187.881 162 187.789 161.9 187.789 161.7V145.925C187.789 145.725 187.881 145.625 188.064 145.625H192.714C194.881 145.625 196.473 146.083 197.489 147C198.523 147.9 199.039 149.225 199.039 150.975C199.039 152.692 198.514 154.008 197.464 154.925C196.414 155.825 194.839 156.275 192.739 156.275H190.789V161.7C190.789 161.9 190.689 162 190.489 162H188.064ZM190.789 153.725H192.689C193.823 153.725 194.664 153.508 195.214 153.075C195.764 152.642 196.039 151.95 196.039 151C196.039 150 195.764 149.283 195.214 148.85C194.664 148.417 193.814 148.2 192.664 148.2H190.789V153.725ZM205.504 162C205.304 162 205.204 161.9 205.204 161.7V148.275H200.904C200.704 148.275 200.604 148.175 200.604 147.975V145.925C200.604 145.725 200.704 145.625 200.904 145.625H212.529C212.729 145.625 212.829 145.725 212.829 145.925V147.975C212.829 148.175 212.729 148.275 212.529 148.275H208.229V161.7C208.229 161.9 208.129 162 207.929 162H205.504Z" fill="white"/>
<path d="M194 101.594C192.444 101.817 190.854 101.933 189.236 101.933C170.917 101.933 156.067 87.0829 156.067 68.7635C156.067 67.146 156.182 65.5556 156.406 64C140.344 66.31 128 80.1286 128 96.8302C128 115.149 142.85 130 161.17 130C177.871 130 191.69 117.656 194 101.594Z" stroke="white" stroke-width="10"/>
</svg>
