<svg width="50" height="50" viewBox="0 0 50 50" fill="none" xmlns="http://www.w3.org/2000/svg">
<path fill-rule="evenodd" clip-rule="evenodd" d="M34.4368 10.1508C33.2083 8.89442 31.7375 7.9006 30.1135 7.22959C28.4894 6.55858 26.7461 6.22436 24.989 6.24719C21.3051 6.24719 18.1485 7.56548 15.5632 10.1508C14.2906 11.367 13.286 12.8356 12.6138 14.4625C11.9416 16.0894 11.6166 17.8388 11.6596 19.5986C11.6596 22.0667 12.2528 24.2859 13.41 26.2779L13.659 26.6515L24.7327 43.7454L36.4948 26.4391C37.7258 24.3744 38.362 22.0096 38.3331 19.6059C38.3331 15.8927 37.0221 12.7361 34.4368 10.1508Z" fill="#123A6E"/>
<path fill-rule="evenodd" clip-rule="evenodd" d="M24.9817 13.615C24.1377 13.5853 23.2971 13.7366 22.5164 14.0587C21.7357 14.3808 21.033 14.8663 20.4555 15.4826C19.8507 16.0687 19.3727 16.773 19.0515 17.5516C18.7302 18.3302 18.5724 19.1666 18.588 20.0087C18.588 21.7884 19.2105 23.2825 20.4555 24.5642C21.042 25.1687 21.7463 25.6464 22.5248 25.9676C23.3034 26.2889 24.1396 26.4468 24.9817 26.4317C25.8277 26.444 26.6675 26.2848 27.4504 25.9639C28.2333 25.6429 28.9431 25.1668 29.5371 24.5642C30.1411 23.9708 30.6185 23.2612 30.9408 22.4783C31.263 21.6954 31.4233 20.8553 31.412 20.0087C31.4262 19.1661 31.2671 18.3295 30.9446 17.551C30.622 16.7724 30.143 16.0684 29.5371 15.4826C28.9523 14.8678 28.2441 14.3837 27.4591 14.0618C26.674 13.74 25.8297 13.5877 24.9817 13.615Z" fill="#449DC2"/>
</svg>
